<svg xmlns="http://www.w3.org/2000/svg" xmlns:xlink="http://www.w3.org/1999/xlink" width="500" zoomAndPan="magnify" viewBox="0 0 375 374.999991" height="500" preserveAspectRatio="xMidYMid meet" version="1.0"><defs><g/><clipPath id="28023eae8d"><path d="M 175 119 L 273 119 L 273 132.300781 L 175 132.300781 Z M 175 119 " clip-rule="nonzero"/></clipPath><clipPath id="b257570e0a"><path d="M 21.535156 58.050781 L 353.785156 58.050781 L 353.785156 114 L 21.535156 114 Z M 21.535156 58.050781 " clip-rule="nonzero"/></clipPath></defs><g clip-path="url(#28023eae8d)"><path fill="#e20039" d="M 183.15625 125.847656 C 182.578125 125.578125 181.890625 125.40625 181.09375 125.34375 L 179.800781 125.234375 C 179.152344 125.183594 178.664062 124.988281 178.335938 124.65625 C 178.007812 124.328125 177.839844 123.949219 177.839844 123.523438 C 177.839844 123.148438 177.933594 122.800781 178.121094 122.476562 C 178.304688 122.152344 178.589844 121.886719 178.96875 121.683594 C 179.34375 121.480469 179.820312 121.382812 180.394531 121.382812 C 180.972656 121.382812 181.472656 121.488281 181.847656 121.699219 C 182.21875 121.914062 182.492188 122.183594 182.667969 122.511719 C 182.839844 122.84375 182.929688 123.195312 182.929688 123.566406 L 184.488281 123.566406 C 184.488281 122.820312 184.316406 122.179688 183.972656 121.640625 C 183.628906 121.101562 183.144531 120.6875 182.53125 120.386719 C 181.914062 120.089844 181.199219 119.941406 180.390625 119.941406 C 179.582031 119.941406 178.855469 120.09375 178.238281 120.394531 C 177.625 120.699219 177.144531 121.117188 176.796875 121.648438 C 176.449219 122.179688 176.28125 122.800781 176.28125 123.515625 C 176.28125 124.421875 176.585938 125.148438 177.207031 125.703125 C 177.824219 126.257812 178.644531 126.574219 179.679688 126.660156 L 180.972656 126.773438 C 181.769531 126.847656 182.375 127.042969 182.789062 127.355469 C 183.199219 127.671875 183.40625 128.066406 183.40625 128.546875 C 183.40625 128.941406 183.300781 129.304688 183.089844 129.640625 C 182.878906 129.976562 182.546875 130.246094 182.101562 130.453125 C 181.65625 130.660156 181.078125 130.765625 180.378906 130.765625 C 179.625 130.765625 179.023438 130.644531 178.582031 130.414062 C 178.144531 130.179688 177.832031 129.882812 177.640625 129.53125 C 177.457031 129.183594 177.363281 128.832031 177.363281 128.480469 L 175.800781 128.480469 C 175.800781 129.191406 175.980469 129.832031 176.34375 130.394531 C 176.703125 130.957031 177.226562 131.398438 177.90625 131.71875 C 178.582031 132.035156 179.410156 132.199219 180.378906 132.199219 C 181.292969 132.199219 182.09375 132.042969 182.785156 131.734375 C 183.472656 131.429688 184.011719 130.996094 184.394531 130.441406 C 184.777344 129.886719 184.964844 129.257812 184.964844 128.542969 C 184.964844 127.914062 184.808594 127.375 184.496094 126.921875 C 184.183594 126.472656 183.734375 126.109375 183.15625 125.835938 Z M 191.855469 126.703125 L 197.058594 126.703125 L 197.058594 125.296875 L 191.855469 125.296875 L 191.855469 121.671875 L 197.394531 121.671875 L 197.394531 120.265625 L 190.296875 120.265625 L 190.296875 131.925781 L 197.550781 131.925781 L 197.550781 130.519531 L 191.855469 130.519531 Z M 207.628906 127.582031 L 211.410156 127.582031 L 211.410156 129.539062 C 211.132812 129.808594 210.808594 130.050781 210.425781 130.253906 C 209.742188 130.621094 208.945312 130.804688 208.042969 130.804688 C 207.40625 130.804688 206.816406 130.703125 206.28125 130.5 C 205.742188 130.296875 205.28125 130 204.886719 129.601562 C 204.492188 129.199219 204.1875 128.703125 203.972656 128.097656 C 203.753906 127.496094 203.644531 126.796875 203.644531 126 C 203.644531 125.296875 203.742188 124.664062 203.945312 124.097656 C 204.148438 123.535156 204.433594 123.050781 204.796875 122.644531 C 205.164062 122.242188 205.601562 121.929688 206.113281 121.710938 C 206.621094 121.492188 207.179688 121.382812 207.789062 121.382812 C 208.398438 121.382812 208.941406 121.492188 209.453125 121.710938 C 209.96875 121.929688 210.402344 122.253906 210.753906 122.683594 C 211.101562 123.117188 211.316406 123.65625 211.390625 124.300781 L 212.984375 124.300781 C 212.910156 123.441406 212.644531 122.683594 212.1875 122.023438 C 211.730469 121.371094 211.125 120.859375 210.371094 120.492188 C 209.613281 120.125 208.753906 119.941406 207.789062 119.941406 C 206.894531 119.941406 206.09375 120.101562 205.382812 120.429688 C 204.667969 120.753906 204.066406 121.195312 203.574219 121.753906 C 203.078125 122.3125 202.703125 122.941406 202.441406 123.640625 C 202.175781 124.339844 202.046875 125.058594 202.046875 125.804688 L 202.046875 126.15625 C 202.046875 127.027344 202.191406 127.832031 202.480469 128.570312 C 202.769531 129.3125 203.175781 129.953125 203.699219 130.496094 C 204.222656 131.042969 204.855469 131.460938 205.589844 131.757812 C 206.324219 132.058594 207.136719 132.207031 208.042969 132.207031 C 209.105469 132.207031 210.046875 132.011719 210.867188 131.632812 C 211.6875 131.25 212.355469 130.714844 212.875 130.035156 L 212.875 127.578125 L 213.863281 127.578125 L 213.863281 126.269531 L 207.628906 126.269531 Z M 226.667969 127.484375 C 226.667969 128.148438 226.542969 128.722656 226.292969 129.21875 C 226.042969 129.714844 225.675781 130.097656 225.191406 130.367188 C 224.707031 130.636719 224.113281 130.773438 223.414062 130.773438 C 222.710938 130.773438 222.117188 130.636719 221.625 130.359375 C 221.136719 130.082031 220.765625 129.699219 220.519531 129.203125 C 220.269531 128.707031 220.144531 128.136719 220.144531 127.488281 L 220.144531 120.269531 L 218.585938 120.269531 L 218.585938 127.296875 C 218.585938 128.277344 218.769531 129.136719 219.136719 129.875 C 219.5 130.617188 220.042969 131.191406 220.761719 131.601562 C 221.480469 132.011719 222.363281 132.214844 223.417969 132.214844 C 224.46875 132.214844 225.371094 132.011719 226.078125 131.601562 C 226.789062 131.191406 227.324219 130.621094 227.6875 129.875 C 228.050781 129.136719 228.230469 128.277344 228.230469 127.296875 L 228.230469 120.269531 L 226.667969 120.269531 L 226.667969 127.488281 Z M 240.792969 126.535156 C 241.371094 126.273438 241.796875 125.902344 242.085938 125.417969 C 242.375 124.933594 242.519531 124.359375 242.519531 123.683594 L 242.519531 123.429688 C 242.519531 122.761719 242.375 122.179688 242.085938 121.695312 C 241.796875 121.210938 241.371094 120.84375 240.792969 120.585938 C 240.222656 120.332031 239.503906 120.203125 238.644531 120.203125 L 234.097656 120.203125 L 234.097656 131.925781 L 235.660156 131.925781 L 235.660156 126.925781 L 238.644531 126.925781 C 238.761719 126.925781 238.867188 126.917969 238.980469 126.914062 L 241.191406 131.925781 L 242.933594 131.925781 L 240.53125 126.636719 C 240.621094 126.601562 240.714844 126.574219 240.792969 126.535156 Z M 238.945312 125.539062 L 235.660156 125.539062 L 235.660156 121.578125 L 238.945312 121.578125 C 239.605469 121.578125 240.097656 121.753906 240.429688 122.113281 C 240.757812 122.46875 240.925781 122.953125 240.925781 123.558594 C 240.925781 124.164062 240.765625 124.648438 240.445312 125.003906 C 240.121094 125.359375 239.625 125.539062 238.945312 125.539062 Z M 257.746094 121.875 C 257.246094 121.292969 256.617188 120.828125 255.871094 120.476562 C 255.121094 120.125 254.234375 119.953125 253.214844 119.953125 C 252.195312 119.953125 251.3125 120.125 250.5625 120.476562 C 249.8125 120.828125 249.1875 121.292969 248.6875 121.875 C 248.1875 122.453125 247.816406 123.09375 247.570312 123.800781 C 247.328125 124.5 247.207031 125.199219 247.207031 125.890625 L 247.207031 126.242188 C 247.207031 126.882812 247.324219 127.546875 247.5625 128.238281 C 247.804688 128.929688 248.167969 129.582031 248.65625 130.1875 C 249.144531 130.792969 249.769531 131.285156 250.519531 131.65625 C 251.273438 132.023438 252.175781 132.214844 253.214844 132.214844 C 254.257812 132.214844 255.15625 132.027344 255.910156 131.65625 C 256.664062 131.28125 257.285156 130.792969 257.773438 130.1875 C 258.261719 129.582031 258.625 128.929688 258.867188 128.238281 C 259.105469 127.546875 259.222656 126.882812 259.222656 126.242188 L 259.222656 125.890625 C 259.222656 125.199219 259.101562 124.5 258.859375 123.800781 C 258.617188 123.097656 258.242188 122.453125 257.746094 121.875 Z M 257.332031 127.847656 C 257.128906 128.40625 256.835938 128.910156 256.453125 129.347656 C 256.070312 129.792969 255.605469 130.140625 255.058594 130.394531 C 254.511719 130.648438 253.894531 130.777344 253.214844 130.777344 C 252.535156 130.777344 251.921875 130.648438 251.375 130.394531 C 250.828125 130.140625 250.363281 129.792969 249.980469 129.347656 C 249.59375 128.90625 249.304688 128.40625 249.101562 127.847656 C 248.898438 127.289062 248.796875 126.703125 248.796875 126.085938 C 248.796875 125.433594 248.898438 124.828125 249.101562 124.265625 C 249.304688 123.703125 249.59375 123.203125 249.980469 122.773438 C 250.363281 122.339844 250.828125 122.003906 251.375 121.757812 C 251.921875 121.515625 252.535156 121.394531 253.214844 121.394531 C 253.894531 121.394531 254.511719 121.515625 255.058594 121.757812 C 255.605469 122.003906 256.070312 122.34375 256.453125 122.773438 C 256.835938 123.203125 257.128906 123.699219 257.332031 124.265625 C 257.535156 124.832031 257.632812 125.4375 257.632812 126.085938 C 257.632812 126.730469 257.535156 127.289062 257.332031 127.847656 Z M 272.40625 126.9375 C 272.09375 126.488281 271.644531 126.125 271.066406 125.851562 C 270.488281 125.578125 269.800781 125.410156 269.003906 125.347656 L 267.710938 125.238281 C 267.0625 125.1875 266.574219 124.992188 266.246094 124.660156 C 265.917969 124.332031 265.75 123.953125 265.75 123.527344 C 265.75 123.152344 265.84375 122.804688 266.03125 122.480469 C 266.214844 122.15625 266.5 121.890625 266.875 121.6875 C 267.253906 121.484375 267.730469 121.386719 268.304688 121.386719 C 268.878906 121.386719 269.382812 121.492188 269.753906 121.703125 C 270.128906 121.917969 270.402344 122.1875 270.574219 122.515625 C 270.75 122.847656 270.835938 123.195312 270.835938 123.570312 L 272.398438 123.570312 C 272.398438 122.824219 272.226562 122.183594 271.882812 121.644531 C 271.539062 121.105469 271.054688 120.691406 270.4375 120.390625 C 269.824219 120.09375 269.109375 119.945312 268.300781 119.945312 C 267.492188 119.945312 266.765625 120.097656 266.148438 120.398438 C 265.53125 120.703125 265.054688 121.121094 264.707031 121.652344 C 264.359375 122.183594 264.191406 122.804688 264.191406 123.519531 C 264.191406 124.425781 264.496094 125.152344 265.117188 125.707031 C 265.730469 126.261719 266.554688 126.578125 267.589844 126.664062 L 268.878906 126.777344 C 269.679688 126.847656 270.285156 127.046875 270.695312 127.359375 C 271.109375 127.671875 271.316406 128.070312 271.316406 128.550781 C 271.316406 128.945312 271.210938 129.308594 271 129.644531 C 270.789062 129.980469 270.457031 130.25 270.011719 130.457031 C 269.5625 130.664062 268.988281 130.769531 268.285156 130.769531 C 267.535156 130.769531 266.933594 130.648438 266.492188 130.417969 C 266.054688 130.183594 265.738281 129.886719 265.550781 129.535156 C 265.367188 129.1875 265.269531 128.835938 265.269531 128.484375 L 263.710938 128.484375 C 263.710938 129.195312 263.890625 129.835938 264.253906 130.398438 C 264.613281 130.960938 265.132812 131.402344 265.8125 131.722656 C 266.492188 132.039062 267.320312 132.203125 268.285156 132.203125 C 269.203125 132.203125 270.003906 132.046875 270.691406 131.738281 C 271.382812 131.433594 271.921875 131 272.300781 130.445312 C 272.6875 129.890625 272.875 129.257812 272.875 128.546875 C 272.875 127.917969 272.71875 127.378906 272.40625 126.925781 Z M 272.40625 126.9375 " fill-opacity="1" fill-rule="nonzero"/></g><g clip-path="url(#b257570e0a)"><path fill="#e20039" d="M 353.457031 71.90625 L 347.921875 71.90625 C 347.78125 71.90625 347.652344 71.980469 347.578125 72.097656 L 344.828125 76.496094 C 344.734375 76.648438 344.507812 76.632812 344.4375 76.476562 C 342.785156 73.003906 340.332031 71.613281 336.542969 71.613281 C 330.375 71.613281 326.765625 76.53125 326.765625 83.625 L 326.765625 86.988281 C 326.765625 94.503906 330.371094 99.203125 336.542969 99.203125 C 340.902344 99.203125 342.898438 97.082031 344.425781 94.304688 C 344.507812 94.152344 344.71875 94.148438 344.8125 94.292969 L 347.578125 98.726562 C 347.652344 98.84375 347.78125 98.917969 347.925781 98.917969 L 353.460938 98.917969 C 353.585938 98.917969 353.6875 98.816406 353.6875 98.691406 L 353.6875 72.128906 C 353.6875 72.003906 353.585938 71.902344 353.460938 71.902344 Z M 340.222656 91.894531 C 337.621094 91.894531 336.167969 90.539062 335.816406 88.425781 C 335.667969 87.542969 335.632812 87.054688 335.632812 85.328125 C 335.632812 84.214844 335.722656 83.28125 335.867188 82.382812 C 336.191406 80.398438 337.652344 79 340.21875 78.988281 C 342.996094 79 344.585938 80.65625 344.589844 82.863281 L 344.589844 87.925781 C 344.589844 90.753906 342.542969 91.894531 340.21875 91.894531 Z M 323.773438 60.824219 L 315.144531 60.824219 C 315.019531 60.824219 314.921875 60.921875 314.921875 61.050781 L 314.921875 75.871094 C 314.921875 76.101562 314.605469 76.179688 314.496094 75.972656 C 312.851562 72.867188 310.453125 71.609375 306.855469 71.609375 C 300.6875 71.609375 297.078125 76.527344 297.078125 83.621094 L 297.078125 86.984375 C 297.078125 94.5 300.683594 99.199219 306.855469 99.199219 C 311.214844 99.199219 313.210938 97.078125 314.738281 94.300781 C 314.816406 94.148438 315.03125 94.144531 315.125 94.289062 L 317.890625 98.722656 C 317.960938 98.839844 318.09375 98.914062 318.234375 98.914062 L 323.773438 98.914062 C 323.898438 98.914062 323.996094 98.8125 323.996094 98.6875 L 323.996094 61.050781 C 323.996094 60.921875 323.898438 60.824219 323.773438 60.824219 Z M 314.902344 88.199219 C 314.902344 90.210938 313.246094 91.894531 310.539062 91.894531 C 307.832031 91.894531 306.484375 90.539062 306.132812 88.425781 C 305.984375 87.542969 305.949219 87.054688 305.949219 85.328125 C 305.949219 84.214844 306.039062 83.28125 306.183594 82.382812 C 306.503906 80.398438 307.964844 79 310.535156 78.988281 C 313.300781 79 314.882812 80.644531 314.898438 82.839844 L 314.898438 88.203125 Z M 162.742188 82.570312 C 159.339844 81.996094 158.25 81.496094 158.28125 79.980469 L 158.28125 79.914062 C 158.3125 78.609375 159.382812 77.253906 161.773438 77.300781 C 163.984375 77.355469 165.050781 78.535156 165.078125 79.902344 L 165.085938 80.847656 C 165.085938 80.96875 165.183594 81.070312 165.308594 81.070312 L 173.328125 81.070312 C 173.449219 81.070312 173.550781 80.972656 173.550781 80.851562 L 173.5625 80.464844 C 173.683594 74.960938 168.789062 71.230469 161.941406 71.078125 C 155.191406 70.925781 149.839844 74.429688 149.722656 79.699219 L 149.714844 80.066406 C 149.59375 85.5625 154.59375 87.183594 160.890625 88.363281 L 160.890625 88.371094 C 163.894531 88.953125 165.757812 89.046875 165.714844 90.816406 L 165.714844 90.957031 C 165.671875 92.875 163.84375 93.480469 161.457031 93.429688 C 159.347656 93.378906 157.574219 92.429688 157.40625 90.519531 L 157.363281 89.957031 C 157.355469 89.839844 157.253906 89.75 157.136719 89.75 L 149.046875 89.75 C 148.925781 89.75 148.820312 89.851562 148.820312 89.976562 C 148.8125 95.996094 153.90625 99.367188 161.121094 99.53125 C 167.792969 99.679688 174.164062 97.597656 174.308594 91.125 L 174.324219 90.410156 C 174.445312 84.914062 169.164062 83.65625 162.746094 82.570312 Z M 190.066406 71.414062 C 182.71875 71.414062 176.578125 75.601562 176.578125 83.480469 L 176.578125 87.171875 C 176.578125 95.050781 182.546875 99.203125 190.066406 99.203125 C 196.921875 99.203125 202.257812 96.230469 203.304688 90.703125 C 203.328125 90.566406 203.21875 90.433594 203.078125 90.433594 L 194.144531 90.433594 C 194.0625 90.433594 193.996094 90.476562 193.953125 90.546875 C 193.265625 91.734375 191.914062 92.449219 190.035156 92.457031 C 187.429688 92.445312 185.859375 90.984375 185.671875 88.984375 C 185.671875 88.957031 185.667969 88.550781 185.664062 87.953125 C 185.664062 87.828125 185.761719 87.726562 185.886719 87.726562 L 203.265625 87.726562 C 203.390625 87.726562 203.492188 87.628906 203.492188 87.503906 L 203.492188 83.480469 C 203.492188 75.601562 197.414062 71.414062 190.0625 71.414062 Z M 194.230469 83.246094 L 185.882812 83.246094 C 185.753906 83.246094 185.65625 83.148438 185.65625 83.023438 L 185.65625 82.171875 C 185.65625 79.964844 187.261719 78.308594 190.039062 78.296875 C 192.605469 78.308594 194.171875 79.730469 194.390625 81.691406 C 194.390625 81.691406 194.421875 82.234375 194.453125 83.011719 C 194.457031 83.136719 194.355469 83.242188 194.226562 83.242188 Z M 263.394531 71.90625 L 254.769531 71.90625 C 254.644531 71.90625 254.542969 72.007812 254.542969 72.132812 L 254.542969 87.527344 C 254.542969 89.96875 252.585938 91.980469 250.144531 91.988281 C 247.398438 91.992188 245.777344 89.964844 245.777344 87.160156 L 245.777344 72.128906 C 245.777344 72.003906 245.679688 71.902344 245.550781 71.902344 L 236.925781 71.902344 C 236.800781 71.902344 236.703125 72.003906 236.703125 72.128906 L 236.703125 89.925781 C 236.703125 95.238281 240.550781 99.207031 246.074219 99.207031 C 250.546875 99.207031 253.050781 97.28125 254.863281 94.71875 C 254.953125 94.589844 255.148438 94.59375 255.234375 94.730469 L 257.726562 98.726562 C 257.800781 98.84375 257.929688 98.917969 258.074219 98.917969 L 263.390625 98.917969 C 263.515625 98.917969 263.617188 98.816406 263.617188 98.691406 L 263.617188 72.128906 C 263.617188 72.003906 263.515625 71.902344 263.390625 71.902344 Z M 284.941406 71.613281 C 280.46875 71.613281 277.964844 73.539062 276.152344 76.101562 C 276.058594 76.234375 275.863281 76.230469 275.78125 76.09375 L 273.238281 72.011719 C 273.195312 71.945312 273.121094 71.90625 273.042969 71.90625 L 267.621094 71.90625 C 267.496094 71.90625 267.398438 72.007812 267.398438 72.132812 L 267.398438 98.691406 C 267.398438 98.816406 267.496094 98.917969 267.621094 98.917969 L 276.25 98.917969 C 276.375 98.917969 276.472656 98.816406 276.472656 98.691406 L 276.472656 83.402344 C 276.472656 80.945312 278.414062 78.84375 280.875 78.835938 C 283.621094 78.832031 285.242188 80.859375 285.242188 83.664062 L 285.242188 98.691406 C 285.242188 98.816406 285.339844 98.917969 285.464844 98.917969 L 294.089844 98.917969 C 294.21875 98.917969 294.316406 98.816406 294.316406 98.691406 L 294.316406 80.894531 C 294.316406 75.582031 290.46875 71.613281 284.945312 71.613281 Z M 232.941406 71.90625 L 227.402344 71.90625 C 227.261719 71.90625 227.132812 71.980469 227.058594 72.097656 L 224.308594 76.5 C 224.21875 76.648438 223.996094 76.636719 223.921875 76.480469 C 222.273438 73.003906 219.816406 71.613281 216.027344 71.613281 C 209.859375 71.613281 206.25 76.53125 206.25 83.625 L 206.25 86.988281 C 206.25 94.503906 209.855469 99.203125 216.027344 99.203125 C 220.167969 99.203125 222.210938 97.289062 223.714844 94.71875 C 223.828125 94.523438 224.132812 94.605469 224.132812 94.832031 L 224.132812 96.539062 C 224.132812 99.636719 223.492188 101.96875 219.351562 101.96875 L 210.9375 101.96875 C 210.789062 101.96875 210.683594 102.105469 210.71875 102.25 L 212.359375 108.636719 C 212.382812 108.734375 212.472656 108.804688 212.574219 108.804688 L 221.144531 108.804688 C 228.0625 108.804688 233.164062 107.203125 233.164062 98.921875 L 233.164062 72.128906 C 233.164062 72.003906 233.066406 71.902344 232.941406 71.902344 Z M 224.070312 88.175781 C 224.070312 90.242188 222.441406 91.894531 219.707031 91.894531 C 216.972656 91.894531 215.652344 90.539062 215.300781 88.425781 C 215.152344 87.542969 215.113281 87.054688 215.113281 85.328125 C 215.113281 84.214844 215.207031 83.28125 215.351562 82.382812 C 215.671875 80.398438 217.132812 79 219.703125 78.988281 C 222.480469 79 224.0625 80.65625 224.066406 82.863281 L 224.066406 88.179688 Z M 107.957031 92.085938 L 105.722656 92.085938 C 105.011719 92.085938 104.433594 91.507812 104.433594 90.796875 L 104.433594 61.050781 C 104.433594 60.921875 104.335938 60.824219 104.210938 60.824219 L 95.582031 60.824219 C 95.457031 60.824219 95.359375 60.921875 95.359375 61.050781 L 95.359375 94.117188 C 95.359375 96 96.421875 97.777344 98.148438 98.523438 C 98.738281 98.777344 99.386719 98.914062 100.058594 98.914062 L 107.953125 98.914062 C 108.078125 98.914062 108.179688 98.8125 108.179688 98.6875 L 108.179688 92.308594 C 108.179688 92.183594 108.078125 92.082031 107.953125 92.082031 Z M 76.484375 101.851562 L 33.6875 101.851562 C 33.429688 101.851562 33.21875 101.640625 33.21875 101.382812 L 33.21875 58.519531 C 33.222656 58.261719 33.011719 58.050781 32.753906 58.050781 L 22.027344 58.050781 C 21.765625 58.050781 21.558594 58.261719 21.558594 58.519531 L 21.558594 93.914062 C 21.558594 97.148438 22.792969 100.261719 25.015625 102.609375 L 27.800781 105.5625 C 28.359375 106.148438 28.933594 106.722656 29.519531 107.28125 L 32.464844 110.070312 C 34.8125 112.296875 37.921875 113.535156 41.148438 113.535156 L 76.488281 113.535156 C 76.746094 113.535156 76.957031 113.324219 76.957031 113.066406 L 76.957031 102.320312 C 76.957031 102.0625 76.746094 101.851562 76.488281 101.851562 Z M 76.484375 87.253906 L 49.253906 87.253906 C 48.355469 87.253906 47.644531 86.433594 47.828125 85.5 C 47.960938 84.820312 48.566406 84.335938 49.257812 84.335938 L 63.835938 84.335938 C 69.300781 84.335938 73.988281 80.984375 75.960938 76.222656 C 76.777344 74.257812 76.34375 71.992188 74.882812 70.445312 L 70.714844 66.03125 C 70.160156 65.441406 69.582031 64.863281 68.992188 64.304688 L 66.050781 61.519531 C 63.703125 59.289062 60.589844 58.050781 57.363281 58.050781 L 36.601562 58.050781 C 36.34375 58.050781 36.132812 58.261719 36.132812 58.519531 L 36.132812 69.261719 C 36.132812 69.523438 36.34375 69.734375 36.601562 69.734375 L 63.816406 69.734375 C 64.59375 69.734375 65.242188 70.332031 65.289062 71.105469 C 65.339844 71.949219 64.667969 72.652344 63.835938 72.652344 L 49.257812 72.652344 C 42.011719 72.652344 36.136719 78.535156 36.136719 85.792969 L 36.136719 98.464844 C 36.136719 98.726562 36.347656 98.9375 36.605469 98.9375 L 76.488281 98.9375 C 76.746094 98.9375 76.957031 98.726562 76.957031 98.464844 L 76.957031 87.722656 C 76.957031 87.464844 76.746094 87.253906 76.488281 87.253906 Z M 136.148438 71.910156 L 130.613281 71.910156 C 130.472656 71.910156 130.34375 71.984375 130.269531 72.101562 L 127.519531 76.5 C 127.425781 76.652344 127.203125 76.636719 127.128906 76.480469 C 125.480469 73.007812 123.023438 71.617188 119.238281 71.617188 C 113.070312 71.617188 109.457031 76.535156 109.457031 83.628906 L 109.457031 86.992188 C 109.457031 94.507812 113.066406 99.207031 119.238281 99.207031 C 123.597656 99.207031 125.59375 97.085938 127.117188 94.308594 C 127.199219 94.15625 127.414062 94.152344 127.503906 94.296875 L 130.269531 98.730469 C 130.34375 98.847656 130.472656 98.921875 130.617188 98.921875 L 136.152344 98.921875 C 136.277344 98.921875 136.378906 98.820312 136.378906 98.695312 L 136.378906 72.128906 C 136.378906 72.003906 136.277344 71.902344 136.152344 71.902344 Z M 122.917969 91.898438 C 120.3125 91.898438 118.859375 90.542969 118.507812 88.429688 C 118.363281 87.546875 118.324219 87.058594 118.324219 85.332031 C 118.324219 84.21875 118.417969 83.285156 118.5625 82.386719 C 118.882812 80.402344 120.34375 79.003906 122.914062 78.992188 C 125.6875 79.003906 127.28125 80.660156 127.285156 82.867188 L 127.285156 87.929688 C 127.285156 90.757812 125.234375 91.898438 122.914062 91.898438 Z M 122.917969 91.898438 " fill-opacity="1" fill-rule="nonzero"/></g><g fill="#e20039" fill-opacity="1"><g transform="translate(145.531298, 170.239148)"><g><path d="M 24.859375 0 L 19.40625 0 L 16.34375 -11.875 C 16.226562 -12.289062 16.03125 -13.160156 15.75 -14.484375 C 15.476562 -15.816406 15.320312 -16.707031 15.28125 -17.15625 C 15.21875 -16.601562 15.0625 -15.707031 14.8125 -14.46875 C 14.570312 -13.238281 14.382812 -12.363281 14.25 -11.84375 L 11.203125 0 L 5.765625 0 L 0 -22.59375 L 4.71875 -22.59375 L 7.609375 -10.265625 C 8.109375 -7.984375 8.472656 -6.007812 8.703125 -4.34375 C 8.765625 -4.925781 8.90625 -5.832031 9.125 -7.0625 C 9.34375 -8.300781 9.550781 -9.257812 9.75 -9.9375 L 13.046875 -22.59375 L 17.578125 -22.59375 L 20.859375 -9.9375 C 21.003906 -9.375 21.1875 -8.507812 21.40625 -7.34375 C 21.625 -6.175781 21.789062 -5.175781 21.90625 -4.34375 C 22.007812 -5.144531 22.171875 -6.144531 22.390625 -7.34375 C 22.617188 -8.550781 22.828125 -9.523438 23.015625 -10.265625 L 25.890625 -22.59375 L 30.609375 -22.59375 Z M 24.859375 0 "/></g></g></g><g fill="#e20039" fill-opacity="1"><g transform="translate(176.121353, 170.239148)"><g><path d="M 2.265625 -21.75 C 2.265625 -23.28125 3.125 -24.046875 4.84375 -24.046875 C 6.550781 -24.046875 7.40625 -23.28125 7.40625 -21.75 C 7.40625 -21.019531 7.191406 -20.445312 6.765625 -20.03125 C 6.335938 -19.625 5.695312 -19.421875 4.84375 -19.421875 C 3.125 -19.421875 2.265625 -20.195312 2.265625 -21.75 Z M 7.1875 0 L 2.46875 0 L 2.46875 -17.28125 L 7.1875 -17.28125 Z M 7.1875 0 "/></g></g></g><g fill="#e20039" fill-opacity="1"><g transform="translate(185.777305, 170.239148)"><g><path d="M 18.421875 0 L 13.703125 0 L 13.703125 -10.09375 C 13.703125 -11.34375 13.476562 -12.273438 13.03125 -12.890625 C 12.59375 -13.515625 11.890625 -13.828125 10.921875 -13.828125 C 9.609375 -13.828125 8.65625 -13.382812 8.0625 -12.5 C 7.476562 -11.625 7.1875 -10.164062 7.1875 -8.125 L 7.1875 0 L 2.46875 0 L 2.46875 -17.28125 L 6.078125 -17.28125 L 6.703125 -15.078125 L 6.96875 -15.078125 C 7.5 -15.910156 8.222656 -16.539062 9.140625 -16.96875 C 10.066406 -17.394531 11.113281 -17.609375 12.28125 -17.609375 C 14.289062 -17.609375 15.816406 -17.0625 16.859375 -15.96875 C 17.898438 -14.882812 18.421875 -13.316406 18.421875 -11.265625 Z M 18.421875 0 "/></g></g></g><g fill="#e20039" fill-opacity="1"><g transform="translate(206.572363, 170.239148)"><g><path d="M 2.265625 -21.75 C 2.265625 -23.28125 3.125 -24.046875 4.84375 -24.046875 C 6.550781 -24.046875 7.40625 -23.28125 7.40625 -21.75 C 7.40625 -21.019531 7.191406 -20.445312 6.765625 -20.03125 C 6.335938 -19.625 5.695312 -19.421875 4.84375 -19.421875 C 3.125 -19.421875 2.265625 -20.195312 2.265625 -21.75 Z M 7.1875 0 L 2.46875 0 L 2.46875 -17.28125 L 7.1875 -17.28125 Z M 7.1875 0 "/></g></g></g><g fill="#e20039" fill-opacity="1"><g transform="translate(216.228315, 170.239148)"><g><path d="M 12.03125 -13.734375 L 7.9375 -13.734375 L 7.9375 0 L 3.234375 0 L 3.234375 -13.734375 L 0.640625 -13.734375 L 0.640625 -16.015625 L 3.234375 -17.28125 L 3.234375 -18.546875 C 3.234375 -20.515625 3.71875 -21.953125 4.6875 -22.859375 C 5.65625 -23.765625 7.207031 -24.21875 9.34375 -24.21875 C 10.96875 -24.21875 12.410156 -23.976562 13.671875 -23.5 L 12.46875 -20.03125 C 11.519531 -20.332031 10.644531 -20.484375 9.84375 -20.484375 C 9.175781 -20.484375 8.691406 -20.285156 8.390625 -19.890625 C 8.085938 -19.492188 7.9375 -18.984375 7.9375 -18.359375 L 7.9375 -17.28125 L 12.03125 -17.28125 Z M 12.03125 -13.734375 "/></g></g></g><g fill="#e20039" fill-opacity="1"><g transform="translate(228.479786, 170.239148)"><g><path d="M 12.125 -17.609375 C 12.757812 -17.609375 13.285156 -17.5625 13.703125 -17.46875 L 13.359375 -13.046875 C 12.972656 -13.148438 12.507812 -13.203125 11.96875 -13.203125 C 10.457031 -13.203125 9.28125 -12.8125 8.4375 -12.03125 C 7.601562 -11.257812 7.1875 -10.179688 7.1875 -8.796875 L 7.1875 0 L 2.46875 0 L 2.46875 -17.28125 L 6.046875 -17.28125 L 6.734375 -14.375 L 6.96875 -14.375 C 7.507812 -15.34375 8.234375 -16.125 9.140625 -16.71875 C 10.054688 -17.3125 11.050781 -17.609375 12.125 -17.609375 Z M 12.125 -17.609375 "/></g></g></g><g fill="#e20039" fill-opacity="1"><g transform="translate(242.847843, 170.239148)"><g><path d="M 9.625 -14.25 C 8.625 -14.25 7.84375 -13.929688 7.28125 -13.296875 C 6.71875 -12.660156 6.394531 -11.765625 6.3125 -10.609375 L 12.921875 -10.609375 C 12.898438 -11.765625 12.59375 -12.660156 12 -13.296875 C 11.414062 -13.929688 10.625 -14.25 9.625 -14.25 Z M 10.296875 0.3125 C 7.515625 0.3125 5.335938 -0.453125 3.765625 -1.984375 C 2.203125 -3.523438 1.421875 -5.703125 1.421875 -8.515625 C 1.421875 -11.410156 2.144531 -13.648438 3.59375 -15.234375 C 5.039062 -16.816406 7.039062 -17.609375 9.59375 -17.609375 C 12.039062 -17.609375 13.941406 -16.910156 15.296875 -15.515625 C 16.660156 -14.128906 17.34375 -12.207031 17.34375 -9.75 L 17.34375 -7.46875 L 6.203125 -7.46875 C 6.253906 -6.125 6.648438 -5.078125 7.390625 -4.328125 C 8.128906 -3.578125 9.171875 -3.203125 10.515625 -3.203125 C 11.554688 -3.203125 12.539062 -3.304688 13.46875 -3.515625 C 14.394531 -3.734375 15.363281 -4.082031 16.375 -4.5625 L 16.375 -0.90625 C 15.539062 -0.5 14.65625 -0.195312 13.71875 0 C 12.78125 0.207031 11.640625 0.3125 10.296875 0.3125 Z M 10.296875 0.3125 "/></g></g></g><g fill="#e20039" fill-opacity="1"><g transform="translate(261.541766, 170.239148)"><g><path d="M 7.9375 0.3125 C 5.914062 0.3125 4.320312 -0.472656 3.15625 -2.046875 C 2 -3.628906 1.421875 -5.816406 1.421875 -8.609375 C 1.421875 -11.441406 2.007812 -13.648438 3.1875 -15.234375 C 4.375 -16.816406 6 -17.609375 8.0625 -17.609375 C 10.238281 -17.609375 11.898438 -16.765625 13.046875 -15.078125 L 13.203125 -15.078125 C 12.960938 -16.359375 12.84375 -17.503906 12.84375 -18.515625 L 12.84375 -24.046875 L 17.578125 -24.046875 L 17.578125 0 L 13.953125 0 L 13.046875 -2.234375 L 12.84375 -2.234375 C 11.769531 -0.535156 10.132812 0.3125 7.9375 0.3125 Z M 9.59375 -3.453125 C 10.800781 -3.453125 11.6875 -3.800781 12.25 -4.5 C 12.8125 -5.195312 13.117188 -6.382812 13.171875 -8.0625 L 13.171875 -8.578125 C 13.171875 -10.429688 12.882812 -11.757812 12.3125 -12.5625 C 11.738281 -13.363281 10.804688 -13.765625 9.515625 -13.765625 C 8.460938 -13.765625 7.644531 -13.316406 7.0625 -12.421875 C 6.488281 -11.535156 6.203125 -10.242188 6.203125 -8.546875 C 6.203125 -6.847656 6.492188 -5.570312 7.078125 -4.71875 C 7.660156 -3.875 8.5 -3.453125 9.59375 -3.453125 Z M 9.59375 -3.453125 "/></g></g></g><g fill="#e20039" fill-opacity="1"><g transform="translate(281.564347, 170.239148)"><g><path d="M 13.453125 0 L 12.53125 -2.34375 L 12.40625 -2.34375 C 11.613281 -1.34375 10.796875 -0.648438 9.953125 -0.265625 C 9.117188 0.117188 8.023438 0.3125 6.671875 0.3125 C 5.015625 0.3125 3.707031 -0.160156 2.75 -1.109375 C 1.800781 -2.054688 1.328125 -3.40625 1.328125 -5.15625 C 1.328125 -7 1.96875 -8.351562 3.25 -9.21875 C 4.53125 -10.09375 6.46875 -10.578125 9.0625 -10.671875 L 12.0625 -10.765625 L 12.0625 -11.515625 C 12.0625 -13.265625 11.160156 -14.140625 9.359375 -14.140625 C 7.984375 -14.140625 6.363281 -13.722656 4.5 -12.890625 L 2.9375 -16.078125 C 4.925781 -17.117188 7.128906 -17.640625 9.546875 -17.640625 C 11.867188 -17.640625 13.644531 -17.132812 14.875 -16.125 C 16.113281 -15.113281 16.734375 -13.578125 16.734375 -11.515625 L 16.734375 0 Z M 12.0625 -8 L 10.234375 -7.9375 C 8.859375 -7.90625 7.835938 -7.660156 7.171875 -7.203125 C 6.503906 -6.742188 6.171875 -6.050781 6.171875 -5.125 C 6.171875 -3.800781 6.929688 -3.140625 8.453125 -3.140625 C 9.546875 -3.140625 10.421875 -3.453125 11.078125 -4.078125 C 11.734375 -4.710938 12.0625 -5.546875 12.0625 -6.578125 Z M 12.0625 -8 "/></g></g></g></svg>